<?xml version="1.0" encoding="utf-8"?>
<!-- Generator: Adobe Illustrator 25.4.1, SVG Export Plug-In . SVG Version: 6.00 Build 0)  -->
<svg version="1.1" id="freepik_stories-contraception-methods" xmlns:svgjs="http://svgjs.com/svgjs"
	 xmlns="http://www.w3.org/2000/svg" xmlns:xlink="http://www.w3.org/1999/xlink" x="0px" y="0px" viewBox="0 0 500 500"
	 style="enable-background:new 0 0 500 500;" xml:space="preserve">
<style type="text/css">
	.st0{display:none;}
	.st1{display:inline;fill:#F5F5F5;}
	.st2{fill:#16A085;}
	.st3{opacity:0.9;fill:#FFFFFF;enable-background:new    ;}
	.st4{fill:#FFFFFF;}
	.st5{opacity:0.4;fill:#FFFFFF;enable-background:new    ;}
	.st6{opacity:0.5;fill:#FFFFFF;enable-background:new    ;}
	.st7{opacity:0.3;enable-background:new    ;}
	.st8{fill:#633F30;}
	.st9{opacity:0.6;fill:#633F30;enable-background:new    ;}
	.st10{fill:#008B35;}
	.st11{fill:#B7B370;}
	.st12{fill:#C767F4;}
	.st13{opacity:0.4;}
	.st14{fill:#EF707A;}
	.st15{opacity:0.7;fill:#FFFFFF;enable-background:new    ;}
	.st16{fill:#9BA5AA;}
	.st17{opacity:0.6;fill:#FFFFFF;enable-background:new    ;}
	.st18{fill:#74B0E2;}
	.st19{opacity:0.2;fill:#16A085;enable-background:new    ;}
	.st20{fill:#FFAF2A;}
	.st21{fill:#263238;}
	.st22{fill:#FFB573;}
	.st23{fill:#454747;}
	.st24{opacity:0.1;fill:#FFFFFF;enable-background:new    ;}
	.st25{opacity:0.2;enable-background:new    ;}
	.st26{fill:#ED893E;}
	.st27{opacity:0.8;fill:#FFFFFF;enable-background:new    ;}
	.st28{fill:#E0E0E0;}
	.st29{fill:#EB7F1B;}
</style>
<g id="freepik--Shadow--inject-69" class="st0">
	<ellipse id="freepik--path--inject-69" class="st1" cx="250" cy="416.2" rx="193.9" ry="11.3"/>
</g>
<g>
	<g id="freepik--background-simple--inject-69">
		<path id="elu5uwaqhyxp" class="st2" d="M106.6,319.9c-23.8-29.7-9-85.8,27-119.9c31.4-29.8,65.2-26.6,92.7-65
			c25.6-35.8,39.1-74,87.6-89.2c38.2-11.9,64.4,7.3,87.6,29.6c63.4,61.2,49.6,125.4-33.2,191.2c-39.6,31.4-91.6,66.2-138.5,81.5
			C173.6,366.5,136.1,356.6,106.6,319.9z"/>
		<g id="elpj14b9b9le">
			<path id="eltf8ksed9cbr" class="st3" d="M106.6,319.9c-23.8-29.7-9-85.8,27-119.9c31.4-29.8,65.2-26.6,92.7-65
				c25.6-35.8,39.1-74,87.6-89.2c38.2-11.9,64.4,7.3,87.6,29.6c63.4,61.2,49.6,125.4-33.2,191.2c-39.6,31.4-91.6,66.2-138.5,81.5
				C173.6,366.5,136.1,356.6,106.6,319.9z"/>
		</g>
	</g>
	<path id="eld5aqffop9hg" class="st4" d="M246.5,44.6c-0.2,0-0.4-0.1-0.4-0.3l-3-6.2c-0.1-0.2,0-0.5,0.2-0.7c0.2-0.1,0.5,0,0.7,0.2
		l3,6.2c0.1,0.2,0,0.5-0.2,0.7c0,0,0,0,0,0C246.6,44.6,246.5,44.6,246.5,44.6z"/>
	<g id="elmn3zvnoo43k">
		<polygon id="el4wgkxoa3pw3" class="st5" points="256.8,58.6 253.8,52.5 248.7,55 251.7,61.1 250,62 250.3,62.7 258.9,58.4 
			258.5,57.7 		"/>
	</g>
	<polygon id="elj43rpvi7ehh" class="st4" points="257.6,63.6 252.5,53.2 250,54.4 255.2,64.8 254.3,65.3 254.7,66 258.8,63.9 
		258.5,63.2 	"/>
	<g id="el0f3ujpts7tw">
		<path id="el8alvm8ooq1v" class="st6" d="M379.8,152c-0.1,0.5-0.6,0.7-1.1,0.6c-0.5-0.1-0.7-0.6-0.6-1.1s0.6-0.7,1.1-0.6
			C379.7,151,379.9,151.5,379.8,152L379.8,152z"/>
	</g>
	<g id="elfv8fm43k6bu">
		<path id="elgy9q0ylvmpr" class="st6" d="M383.6,150c-0.2,0.5-0.7,0.7-1.1,0.5c-0.4-0.2-0.7-0.6-0.6-1.1c0.1-0.5,0.6-0.7,1.1-0.6
			C383.4,149,383.7,149.5,383.6,150C383.6,150,383.6,150,383.6,150z"/>
	</g>
	<g id="el1lejvlcnb4r">
		<path id="el1pg413d99dr" class="st6" d="M384.5,147.1c-0.1,0.5-0.6,0.7-1.1,0.6c-0.5-0.1-0.7-0.6-0.6-1.1c0.1-0.5,0.6-0.7,1.1-0.6
			C384.4,146.2,384.6,146.7,384.5,147.1z"/>
	</g>
	<g id="freepik--Plant--inject-69">
		<path id="elz31retgkvtn" class="st2" d="M202.9,296.8c0.6,5.2,13.6,3.7,22-3.8c-5.2,2.6-16.3,0.8-21,2.2c1.3-2,2.5-3.9,3.7-5.7
			c1.3,3.5,10.9,1.8,17-4.3c-3.8,2.1-11.7,1.4-15.7,2.4c2-2.9,3.9-5.5,5.7-7.7c2.8,1.2,9.3-2.6,12.6-8.5c-3.1,3.1-11.7,4.5-13.9,6.8
			c0.1,0.4,0.2,0.7,0.4,1c-0.8,1.1-1.7,2.2-2.6,3.4c-0.7-3.3-5.8-9.5-6.1-13.6c-1.6,7.6,2,15.9,5.3,14.6c-1.5,2-3.1,4.3-4.7,6.7
			c-1.2-3.6-7.4-9.9-8.1-14.5c-1,8.5,3.6,17.2,7.2,16c-1.3,2-2.6,4.1-3.9,6.3c-2-4.3-11.2-11.2-13-16.9c0.3,10.8,7.6,20.8,11.9,18.9
			c-1.3,2.3-2.6,4.6-3.9,7.1c-2.7-4.7-13.6-11.6-16.1-17.8c1.3,12,10.2,22.5,14.9,20.2c-1.4,2.8-2.7,5.8-4,8.8
			c-3.4-4.4-16.8-9.3-20.8-15.4c3.9,12.2,15.6,21.3,19.8,17.6c-1.6,4.1-3,8.2-4.2,12.4c-4.1-4-18.7-7.1-23.8-12.8
			c5.9,12,19.1,19.6,23.1,15.3c-1,3.8-1.8,7.6-2.3,11.5c-5.4-3.6-22.3-4.2-29-9.5c8.8,12,24.8,17.8,28.6,12.7
			c-1.1,9.5-0.6,19.1,1.4,28.5l1.1-0.3c-2.3-10.6-2.6-21.5-0.9-32.2c1.8,6.5,19.3,4.6,30.9-5.5c-7.8,3.7-24.5,0.5-30.5,2.9
			c0.7-4.1,1.7-8.1,2.9-12.1c1.9,5.4,17,4.2,27.4-4c-6.8,2.9-20.8-0.3-26.5,1.2c1.3-3.9,2.7-7.7,4.3-11.3c1.3,5.5,16.1,4.7,26.4-3.2
			c-6.5,2.6-19.7-0.6-25.3,0.7c1.4-3.2,3-6.3,4.5-9.2c0.6,5.7,15.1,4.9,25-3c-6.1,2.6-18.7-0.2-24,1.2
			C200.2,301.5,201.6,299.1,202.9,296.8z"/>
		<g id="elov532wuh4f">
			<path id="el1o1lk4naobt" class="st7" d="M202.9,296.8c0.6,5.2,13.6,3.7,22-3.8c-5.2,2.6-16.3,0.8-21,2.2c1.3-2,2.5-3.9,3.7-5.7
				c1.3,3.5,10.9,1.8,17-4.3c-3.8,2.1-11.7,1.4-15.7,2.4c2-2.9,3.9-5.5,5.7-7.7c2.8,1.2,9.3-2.6,12.6-8.5
				c-3.1,3.1-11.7,4.5-13.9,6.8c0.1,0.4,0.2,0.7,0.4,1c-0.8,1.1-1.7,2.2-2.6,3.4c-0.7-3.3-5.8-9.5-6.1-13.6
				c-1.6,7.6,2,15.9,5.3,14.6c-1.5,2-3.1,4.3-4.7,6.7c-1.2-3.6-7.4-9.9-8.1-14.5c-1,8.5,3.6,17.2,7.2,16c-1.3,2-2.6,4.1-3.9,6.3
				c-2-4.3-11.2-11.2-13-16.9c0.3,10.8,7.6,20.8,11.9,18.9c-1.3,2.3-2.6,4.6-3.9,7.1c-2.7-4.7-13.6-11.6-16.1-17.8
				c1.3,12,10.2,22.5,14.9,20.2c-1.4,2.8-2.7,5.8-4,8.8c-3.4-4.4-16.8-9.3-20.8-15.4c3.9,12.2,15.6,21.3,19.8,17.6
				c-1.6,4.1-3,8.2-4.2,12.4c-4.1-4-18.7-7.1-23.8-12.8c5.9,12,19.1,19.6,23.1,15.3c-1,3.8-1.8,7.6-2.3,11.5
				c-5.4-3.6-22.3-4.2-29-9.5c8.8,12,24.8,17.8,28.6,12.7c-1.1,9.5-0.6,19.1,1.4,28.5l1.1-0.3c-2.3-10.6-2.6-21.5-0.9-32.2
				c1.8,6.5,19.3,4.6,30.9-5.5c-7.8,3.7-24.5,0.5-30.5,2.9c0.7-4.1,1.7-8.1,2.9-12.1c1.9,5.4,17,4.2,27.4-4
				c-6.8,2.9-20.8-0.3-26.5,1.2c1.3-3.9,2.7-7.7,4.3-11.3c1.3,5.5,16.1,4.7,26.4-3.2c-6.5,2.6-19.7-0.6-25.3,0.7
				c1.4-3.2,3-6.3,4.5-9.2c0.6,5.7,15.1,4.9,25-3c-6.1,2.6-18.7-0.2-24,1.2C200.2,301.5,201.6,299.1,202.9,296.8z"/>
		</g>
		<path id="elgtv8nuqczcq" class="st2" d="M172,379l-1.1-0.1c2.5-36.6-26.3-67-38.8-78.3l0.7-0.8C145.4,311.3,174.5,342,172,379z"/>
		<path id="elbqx8praodeu" class="st2" d="M142.5,310.2c0-2.9,4.9-9.4,4.9-13.5C149.5,304.3,146,313,142.5,310.2z"/>
		<path id="ell8xxa09fxk" class="st2" d="M137.1,304.4c-0.3-2.6,3.6-8.7,3.2-12.3C142.8,298.6,140.4,306.5,137.1,304.4z"/>
		<path id="elkab1z60h5eg" class="st2" d="M147.4,316c0.5-3.6,7.8-11,8.6-16.1C157.3,309.8,151.2,320,147.4,316z"/>
		<path id="el6zk4jxwn2g6" class="st2" d="M152.6,322.8c0.9-4,9.8-11.6,11.1-17.3C164.2,316.7,156.5,327.7,152.6,322.8z"/>
		<path id="elrt78ynpyokm" class="st2" d="M158.2,330.9c1.8-4,12.6-9.9,15.2-15.6C171.6,327.1,161.3,336.8,158.2,330.9z"/>
		<path id="elhwj28hkltv7" class="st2" d="M164.3,342.2c2.4-3.9,14.5-8.4,18-13.8C178.6,340.3,166.5,348.8,164.3,342.2z"/>
		<path id="el7rv675l03no" class="st2" d="M168.4,353.3c3.5-3.8,17.9-6.4,22.9-11.8C184.8,354,169.6,361.1,168.4,353.3z"/>
		<path id="eleew5im5srcm" class="st2" d="M140.8,308.1c-2.7-1-10.5,1.2-14.3-0.2C132.8,312.5,142.1,312.2,140.8,308.1z"/>
		<path id="elmf6sngv9wj" class="st2" d="M134.8,300.6c-2-1.6-9.3-1.6-12.2-3.8C126.8,302.4,134.8,304.5,134.8,300.6z"/>
		<path id="el5mp4uphbzwn" class="st2" d="M145.4,313.6c-3.5-1.2-13.3,2.3-18.2,0.7C135.6,319.7,147.4,318.8,145.4,313.6z"/>
		<path id="elapzutfmss56" class="st2" d="M150.6,320c-4-1.1-14.8,3.4-20.5,2C139.9,327.5,153.2,325.7,150.6,320z"/>
		<path id="elnvi8ixs7ghm" class="st2" d="M156.7,328.3c-4.3-1-15.6,4-21.6,2.5C145.5,336.5,159.5,334.3,156.7,328.3z"/>
		<path id="el4cr0x8cecz3" class="st2" d="M162.7,338.9c-4.4-1.2-16.3,3.9-22.6,2.3C150.9,347.3,165.6,345.2,162.7,338.9z"/>
		<path id="eliuwdekhktip" class="st2" d="M167.3,350.6c-4.9-1.5-18.7,3.5-25.7,1.4C153.6,359.5,170.2,357.9,167.3,350.6z"/>
		<path id="elaqlev254ai5" class="st8" d="M163.9,416.2h24.4c1.5,0,2.8-1.2,3-2.7l4.7-45.7c0.2-1.6-1-3.1-2.7-3.3
			c-0.1,0-0.2,0-0.3,0h-33.8c-1.7,0-3,1.3-3,3c0,0.1,0,0.2,0,0.3l4.7,45.7C161,415.1,162.3,416.3,163.9,416.2z"/>
		<g id="elojgag2ghwb">
			<path id="elr3wf2hpl1" class="st9" d="M163.9,416.2h24.4c1.5,0,2.8-1.2,3-2.7l4.7-45.7c0.2-1.6-1-3.1-2.7-3.3c-0.1,0-0.2,0-0.3,0
				h-33.8c-1.7,0-3,1.3-3,3c0,0.1,0,0.2,0,0.3l4.7,45.7C161,415.1,162.3,416.3,163.9,416.2z"/>
		</g>
	</g>
	<g id="elbi5rtunglri_00000156564416618058476200000017337324857195429764_">
		
			<ellipse id="el22kohm2olfaj_00000101826047064372383740000010195399518457786540_" class="st10" cx="248.6" cy="57.7" rx="20.6" ry="20.6"/>
	</g>
	<polygon id="elyoqcx71gfl_00000093894084847310713030000018134531785895585208_" class="st4" points="251.6,57.2 246.4,59.7 
		242.1,51 243.9,48.2 247.2,48.4 	"/>
	<path id="eld5aqffop9hg_00000033371441317972310540000003005482636339320223_" class="st4" d="M244.5,49.8c-0.2,0-0.4-0.1-0.4-0.3
		l-3-6.2c-0.1-0.2,0-0.5,0.2-0.7c0.2-0.1,0.5,0,0.7,0.2l3,6.2c0.1,0.2,0,0.5-0.2,0.7l0,0C244.6,49.8,244.5,49.8,244.5,49.8z"/>
	<g id="elmn3zvnoo43k_00000111897879563615135590000016329085788959286671_">
		<polygon id="el4wgkxoa3pw3_00000136386052409255962130000012278683043433135263_" class="st5" points="254.8,63.8 251.8,57.7 
			246.7,60.2 249.7,66.3 248,67.2 248.3,67.9 256.9,63.6 256.5,62.9 		"/>
	</g>
	<polygon id="elj43rpvi7ehh_00000038374018935295404890000004130497595028909991_" class="st4" points="255.6,68.8 250.5,58.4 
		248,59.6 253.2,70 252.3,70.5 252.7,71.2 256.8,69.1 256.5,68.4 	"/>
	<path id="els4173d86kc_00000158743055175688127480000006231254426932440492_" class="st11" d="M345.8,94.5
		c-6.7,9.2-19.5,11.3-28.7,4.6c-9.2-6.7-11.3-19.5-4.6-28.7c6.7-9.2,19.5-11.3,28.7-4.6l0,0C350.4,72.4,352.5,85.3,345.8,94.5z"/>
	<path id="elz99a20jafqa_00000109018025268172464950000018147028438273494688_" class="st4" d="M336.1,71.9l-3.9,5.3
		c-0.1,0.1-0.2,0.1-0.2,0l0,0c-0.4-0.7-1.2-2.9,3.9-5.5C336,71.7,336.1,71.7,336.1,71.9C336.2,71.8,336.1,71.9,336.1,71.9z"/>
	<path id="elvgkkot892si_00000023995143374286067890000006038933658278679952_" class="st4" d="M325.6,93c-0.1,0-0.2,0-0.2-0.1
		c-0.2-0.1-0.3-0.4-0.2-0.7l0,0l7.6-13.7c0.2-0.3,0.2-0.6,0-0.9l-0.7-1c-0.2-0.2-0.1-0.5,0.1-0.7l0,0c0.2-0.2,0.5-0.1,0.7,0.1l0.7,1
		c0.4,0.6,0.5,1.4,0.1,2l-7.6,13.7C326,92.9,325.8,93,325.6,93z"/>
	<path id="el8ymstmvsrxc_00000127009448858211058800000005217606303737075615_" class="st4" d="M327.7,97c-1.7-0.1-3-1.6-2.8-3.3
		c0.1-1.7,1.6-3,3.3-2.8s3,1.6,2.8,3.3c-0.1,1.5-1.3,2.7-2.8,2.8C328,97,327.9,97,327.7,97z M327.7,92c-0.1,0-0.2,0-0.3,0
		c-0.5,0.1-1,0.4-1.3,0.8c-0.7,0.9-0.5,2.1,0.4,2.8l0,0c0.9,0.7,2.1,0.5,2.8-0.4c0,0,0,0,0-0.1l0,0c0.7-0.9,0.5-2.1-0.4-2.8
		C328.6,92.1,328.2,91.9,327.7,92L327.7,92z"/>
	<path id="eljlfdmkcj9cn_00000000209100677751603030000013958383302686800573_" class="st4" d="M337,72.5l-3.9,5.3
		c-0.1,0.1,0,0.2,0,0.2s0,0,0.1,0c0.7,0.2,3.2,0.3,4-5.4C337.2,72.5,337.1,72.5,337,72.5L337,72.5z"/>
	<path id="el3odq1ic21ch_00000147915455034814712620000013710099698971826853_" class="st4" d="M320.7,89.4c-0.1,0-0.2-0.1-0.3-0.1
		c-0.2-0.2-0.2-0.5,0-0.7l0,0L331,77c0.5-0.5,1.2-0.7,1.9-0.5l1.2,0.3c0.3,0.1,0.4,0.3,0.3,0.6l0,0c-0.1,0.3-0.4,0.4-0.6,0.3
		l-1.2-0.3c-0.3-0.1-0.7,0-0.9,0.2L321,89.2C320.9,89.3,320.8,89.4,320.7,89.4z"/>
	<path id="el2f2ysh5sm2b_00000023267632549168989710000014854899877250288534_" class="st4" d="M318.6,90.4c-0.6,0-1.3-0.2-1.8-0.6
		c-1.4-1-1.7-2.8-0.7-4.2c0,0,0,0,0-0.1l0,0c0.5-0.7,1.2-1.1,2-1.2s1.6,0.1,2.2,0.5c1.4,0.9,1.7,2.8,0.8,4.2
		c-0.5,0.7-1.2,1.2-2.1,1.3C318.9,90.4,318.8,90.4,318.6,90.4z M318.6,85.4c-0.1,0-0.2,0-0.3,0c-0.5,0.1-1,0.4-1.3,0.8l0,0
		c-0.6,0.9-0.4,2.2,0.5,2.8c0.9,0.6,2.2,0.4,2.8-0.5c0.6-0.9,0.4-2.1-0.4-2.7C319.5,85.5,319.1,85.4,318.6,85.4L318.6,85.4z
		 M316.5,85.9L316.5,85.9z"/>
	<g id="eliwp4ob88m9m_00000005981557162874016680000013634130404055928739_">
		<circle id="elhtvta6hd62v_00000051375647233731229700000009232585753836563894_" class="st12" cx="171" cy="90.5" r="20.6"/>
	</g>
	<g id="elfganvro0keo_00000021111621773419392190000005522917616041016726_">
		<g id="el21bbzrte8gl_00000070111833091910116040000012201633784671507381_" class="st13">
			<path id="el7sepnjixav3_00000083077441932820588640000009360950191995156609_" class="st4" d="M171,76.8
				c-7.6,0-13.7,6.1-13.7,13.7s6.1,13.7,13.7,13.7s13.7-6.1,13.7-13.7C184.7,83,178.6,76.8,171,76.8L171,76.8z M171,100.9
				c-5.8,0-10.4-4.6-10.4-10.4s4.6-10.4,10.4-10.4c5.8,0,10.4,4.6,10.4,10.4l0,0C181.4,96.3,176.7,100.9,171,100.9z"/>
		</g>
	</g>
	<g id="el1zcn5u6getv_00000092450757065992005690000010642146713909369242_">
		<g id="elnlvi1yw1ejf_00000003085687745114870390000013408838930849011085_" class="st13">
			<path id="el1j4z1cdf2dt_00000150791449441970774740000005127695726800236172_" class="st4" d="M171,79.2
				c-6.3,0-11.3,5.1-11.3,11.3c0,6.3,5.1,11.3,11.3,11.3s11.3-5.1,11.3-11.3l0,0C182.3,84.3,177.3,79.2,171,79.2z M171,101
				c-5.8,0-10.4-4.6-10.4-10.4s4.6-10.4,10.4-10.4s10.4,4.6,10.4,10.4C181.4,96.3,176.7,100.9,171,101L171,101z"/>
		</g>
	</g>
	<g id="elvrakri79bf_00000108275615028362120510000006838391289107566749_">
		<circle id="elcm3f493boj_00000023257162911131245480000002882356693896795294_" class="st14" cx="364.6" cy="236.8" r="20.6"/>
	</g>
	<g id="elfxhilokq48q_00000067202646264761484790000016659345978017958536_">
		<path id="el5oz641gde3l_00000120543999679071083080000017212052321847494548_" class="st15" d="M353.3,231h22.6
			c0.9,0,1.6,0.7,1.6,1.6v8.3c0,0.9-0.7,1.6-1.6,1.6h-22.6c-0.9,0-1.6-0.7-1.6-1.6v-8.3C351.7,231.7,352.4,231,353.3,231z"/>
	</g>
	<path id="elbcld7ax9kt9_00000151545023876238268860000007201945333152722830_" class="st4" d="M367.7,236.5
		c-0.7,0.5-1.7,0.3-2.2-0.4s-0.3-1.7,0.4-2.2c0.7-0.5,1.7-0.3,2.2,0.4l0,0C368.5,235,368.4,236,367.7,236.5z"/>
	<path id="elpvca324gp7_00000129926317302974741100000005962386478429461418_" class="st4" d="M363.4,239.6
		c-0.7,0.5-1.7,0.3-2.2-0.4s-0.3-1.7,0.4-2.2c0.7-0.5,1.7-0.3,2.2,0.4l0,0C364.2,238.1,364.1,239.1,363.4,239.6L363.4,239.6z"/>
	<path id="el8u1fuw34z6b_00000092439057703809716630000017662216204193727913_" class="st4" d="M370.4,240.3
		c-0.7,0.5-1.7,0.3-2.2-0.4s-0.3-1.7,0.4-2.2c0.7-0.5,1.7-0.3,2.2,0.4l0,0C371.3,238.8,371.1,239.8,370.4,240.3z"/>
	<path id="elzswaoofjnpj_00000160893756642082419450000011356936126218175900_" class="st4" d="M366.1,243.4
		c-0.7,0.5-1.7,0.3-2.2-0.4s-0.3-1.7,0.4-2.2c0.7-0.5,1.7-0.3,2.2,0.4C366.9,241.9,366.8,242.9,366.1,243.4L366.1,243.4z"/>
	<path id="elt2pq4ps053h_00000147187432753895419530000000077917546385075615_" class="st4" d="M373.1,244.1
		c-0.7,0.5-1.7,0.4-2.2-0.4c-0.5-0.7-0.4-1.7,0.4-2.2s1.7-0.4,2.2,0.4l0,0C374,242.6,373.8,243.6,373.1,244.1z"/>
	<path id="el403uoh1kcgp_00000091014786732742078840000016089590525405626752_" class="st4" d="M368.8,247.2
		c-0.7,0.5-1.7,0.3-2.2-0.4s-0.3-1.7,0.4-2.2c0.7-0.5,1.7-0.3,2.2,0.4l0,0C369.6,245.7,369.5,246.7,368.8,247.2z"/>
	<path id="el5hf7khc9uud_00000096042153480566621090000003141270221291646131_" class="st4" d="M365,232.7c-0.7,0.5-1.7,0.3-2.2-0.4
		s-0.3-1.7,0.4-2.2c0.7-0.5,1.7-0.3,2.2,0.4S365.7,232.2,365,232.7z"/>
	<path id="el7s5qxex0xba_00000036961614436323885930000011844329932103109793_" class="st4" d="M360.6,235.8
		c-0.7,0.5-1.7,0.4-2.2-0.4c-0.5-0.7-0.4-1.7,0.4-2.2s1.7-0.4,2.2,0.4l0,0C361.5,234.3,361.4,235.3,360.6,235.8
		C360.7,235.8,360.6,235.8,360.6,235.8z"/>
	<path id="el60r42wkwbb_00000027564149782810305770000015507771177607086983_" class="st4" d="M362.3,228.9
		c-0.7,0.5-1.7,0.3-2.2-0.4s-0.3-1.7,0.4-2.2c0.7-0.5,1.7-0.3,2.2,0.4l0,0C363.1,227.4,363,228.4,362.3,228.9z"/>
	<path id="el3av65p0lbck_00000052796523308317771270000009694613053715374255_" class="st4" d="M357.9,232c-0.7,0.5-1.7,0.3-2.2-0.4
		s-0.3-1.7,0.4-2.2c0.7-0.5,1.7-0.3,2.2,0.4S358.6,231.5,357.9,232L357.9,232z"/>
	<path id="el5ofznpwt9y2_00000002366133459379432210000014769356571784810116_" class="st16" d="M164.6,263.5
		c-8.8,7.2-21.7,6-29-2.8c-7.2-8.8-6-21.7,2.8-29c8.8-7.2,21.7-6,29,2.7C174.6,243.3,173.4,256.3,164.6,263.5L164.6,263.5z"/>
	<g id="ely6lay7o9xi_00000124128312741682790710000011794661690667793024_">
		<path id="elz5xlykj4g7_00000167392326481948819650000010705751645963670453_" class="st17" d="M140.1,257.1L140.1,257.1
			c-0.4-0.5-0.4-1.3,0.2-1.7l21-17.4c0.5-0.4,1.3-0.4,1.7,0.2l0,0l0,0c0.4,0.5,0.4,1.3-0.2,1.7l0,0l-21,17.4
			C141.3,257.7,140.5,257.7,140.1,257.1L140.1,257.1z"/>
	</g>
	<g id="el1db5n4iqvv9_00000131362994740683423110000016291556345206907280_">
		<path id="el5ldq5n3rpsr_00000178174056510047317530000008725861070106048914_" class="st17" d="M159.5,241.1L159.5,241.1
			c-0.3-0.3-0.2-0.9,0.1-1.2l0,0l1.6-1.4c0.4-0.3,0.9-0.2,1.2,0.1l0,0c0.3,0.4,0.2,0.9-0.1,1.2l-1.7,1.4
			C160.3,241.5,159.8,241.4,159.5,241.1L159.5,241.1z"/>
	</g>
	<g id="el0xfigpa0f0ac_00000016049691781497381420000005284523107065775494_">
		<path id="elw4jcl72r6i_00000109734427477937693910000006175873836726141834_" class="st17" d="M141.9,255L141.9,255
			c-0.1-0.1-0.1-0.3,0-0.4l11.7-9.7c0.1-0.1,0.3-0.1,0.4,0l0,0c0.1,0.1,0.1,0.3,0,0.4l-11.7,9.7C142.2,255.1,142,255.1,141.9,255z"
			/>
	</g>
	<g id="elvxgfs04wi9p_00000167372597814240138950000014187326483935469976_">
		<circle id="elx0iu4p7cid_00000040535776154653413150000014135383702164733340_" class="st18" cx="132.6" cy="165.6" r="20.6"/>
	</g>
	<g id="el3tqn4y7rfa4_00000088096383571955903520000007261236314211320243_">
		<path id="elibq71wcoxs_00000062898696189764694820000003456655726220333187_" class="st5" d="M121.3,154.8H144
			c1.2,0,2.1,0.9,2.1,2.1v17.3c0,1.2-0.9,2.1-2.1,2.1h-22.7c-1.2,0-2.1-0.9-2.1-2.1V157C119.2,155.8,120.2,154.8,121.3,154.8z"/>
	</g>
	<path id="el2lwjg168jul_00000072277971128494831090000014227968599207113376_" class="st4" d="M118.4,162.8l2.8,13.9
		c0.2,1.1,1.3,1.9,2.5,1.6l22.2-4.5c1.1-0.2,1.9-1.3,1.6-2.5l-2.8-13.9L118.4,162.8z"/>
	<g id="el9o36gykrzb_00000042017592195613983350000000687660664946793626_">
		
			<rect id="ela07nyy394qn_00000183229570826930257780000010856681746736134276_" x="133.7" y="161.7" class="st19" width="3.4" height="2.8"/>
	</g>
	<g id="el468ggmofee_00000109738163288853632540000000877095104734802579_">
		
			<rect id="elatlje71qmsq_00000109736567928533436530000015331588601611390106_" x="134.5" y="165.8" class="st19" width="3.4" height="2.8"/>
	</g>
	<g id="elyjg7x71gxtf_00000100375703270269805650000000856959848122139016_">
		
			<rect id="elx2pmo8e2df_00000007411574046588677930000008684770841643017877_" x="139.8" y="160.5" class="st19" width="3.4" height="2.8"/>
	</g>
	<g id="el81kemq8xfed_00000181774922326190847750000012219147386075401101_">
		
			<rect id="elbbdqoaq0orm_00000000212268932186773480000009165909331646064312_" x="140.6" y="164.5" class="st19" width="3.4" height="2.8"/>
	</g>
	<g id="eln5hqf5retdt_00000102522649601124093070000004672513678218499497_">
		
			<rect id="elnnjmjjpproa_00000175293967893977181370000005507105299361152701_" x="127.5" y="163" class="st19" width="3.4" height="2.8"/>
	</g>
	<g id="elpiz34expxo_00000134238932298450576540000005673019645219651221_">
		
			<rect id="elo3d5x1o70vd_00000019673434443492028050000005741867008248721053_" x="128.4" y="167" class="st19" width="3.4" height="2.8"/>
	</g>
	<g id="elt47u6lf61n_00000169539574305871152750000008144120408012548280_">
		
			<rect id="elexgcakxicz_00000091736307595310335140000005206221154518807472_" x="121.4" y="164.2" class="st19" width="3.3" height="2.8"/>
	</g>
	<g id="eltqa2shi7jrf_00000055666547091010839910000007869094123209393560_">
		
			<rect id="el99j2mp34qov_00000047034266871915454710000000466849252929518980_" x="122.2" y="168.3" class="st19" width="3.3" height="2.8"/>
	</g>
	<g id="elop3ryxkuqt_00000026141942870998678570000013752341083455142538_">
		
			<rect id="elqxafcr9rhsa_00000060726347622473334800000000577113757785076864_" x="135.3" y="169.8" class="st19" width="3.4" height="2.8"/>
	</g>
	<g id="elqns235v618q_00000041261684603872523540000001017890046080790197_">
		
			<rect id="elmixt1oht7k8_00000020389737508745577330000010924030618954661254_" x="141.4" y="168.6" class="st19" width="3.4" height="2.8"/>
	</g>
	<g id="elkf4juvd95nn_00000016063304301769271560000003016781904866819204_">
		
			<rect id="elqfl0a9tlqe8_00000007420340499869294620000002258278970247820162_" x="129.2" y="171.1" class="st19" width="3.4" height="2.8"/>
	</g>
	<g id="el6temc86gp92_00000152979613499468094570000002427602388712986754_">
		
			<rect id="eltt9lsbw0lrc_00000118362384423162354810000000163669141793071033_" x="123.1" y="172.3" class="st19" width="3.4" height="2.8"/>
	</g>
	<g>
		<g id="elaq3sfq1ian_00000124144605167712774950000004292698802354310831_">
			<circle id="elg3ct4u3fg8o_00000071545129338722456250000009190140886271287485_" class="st20" cx="375" cy="163.3" r="20.6"/>
		</g>
		<g id="el5hsm0n4q9tk_00000117677188719854697980000000550274786602567838_">
			<path id="el86ipzp1sq8x_00000059293842941507856290000014127305478428162979_" class="st6" d="M388,161.1l-4.4,14
				c-0.5,1.6-2.2,2.5-3.9,2l-16.6-5.2c-1.6-0.5-2.5-2.2-2-3.9l5.2-16.6c0.5-1.6,2.2-2.5,3.9-2l14,4.4l-0.8,2.6
				c-0.5,1.6,0.4,3.3,2,3.9L388,161.1z"/>
		</g>
		<g id="eltbs40f34ac_00000131352234147429625510000006698147990011421367_">
			<path id="elbz6qp9diufw_00000065037675936138528010000003069593439904826546_" class="st6" d="M386.4,160.6l-4.4,14
				c-0.2,0.7-1,1.1-1.8,0.9l-16.6-5.2c-0.7-0.2-1.1-1-0.9-1.8L368,152c0.2-0.7,1-1.1,1.8-0.9c0,0,0,0,0,0l14,4.4l-0.3,1
				c-0.5,1.6,0.4,3.3,2,3.9L386.4,160.6z"/>
		</g>
		<g id="eliwzs46zsh8_00000016075024519087380800000011264290011252435892_">
			<path id="eliq39x5fza8_00000176028378935381039700000011755036583482773180_" class="st6" d="M375.8,163.6
				c-0.1,0.5-0.6,0.7-1.1,0.6c-0.5-0.1-0.7-0.6-0.6-1.1c0.1-0.5,0.6-0.7,1.1-0.6C375.7,162.6,376,163.1,375.8,163.6z"/>
		</g>
		<g id="ely67oytju8um_00000159469741245294433160000000332459036594487465_">
			<path id="elsiuw7ijodss_00000146459238187171738010000006441641855633249185_" class="st6" d="M374.9,166.5
				c-0.1,0.5-0.6,0.7-1.1,0.6c0,0,0,0,0,0c-0.5-0.2-0.7-0.6-0.6-1.1c0.2-0.5,0.7-0.7,1.2-0.5C374.8,165.6,375,166,374.9,166.5
				L374.9,166.5z"/>
		</g>
		<g id="ell6540shiqje_00000021800319318048832620000017156460555260413569_">
			<path id="elk5ekambfk6_00000172433106611159213130000017042922214317387403_" class="st6" d="M376.7,160.7
				c-0.1,0.5-0.6,0.7-1.1,0.6c-0.5-0.1-0.7-0.6-0.6-1.1c0.1-0.5,0.6-0.7,1.1-0.6C376.6,159.7,376.9,160.2,376.7,160.7
				C376.7,160.7,376.7,160.7,376.7,160.7z"/>
		</g>
		<g id="els2u83l3039e_00000031900273155422459950000011203431816696655026_">
			<path id="el3maobvv6esv_00000013165785119379732600000004537303940968605098_" class="st6" d="M378.7,164.5
				c-0.1,0.5-0.6,0.7-1.1,0.6c0,0,0,0,0,0c-0.5-0.1-0.7-0.6-0.6-1.1c0.1-0.5,0.6-0.7,1.1-0.6C378.6,163.5,378.8,164,378.7,164.5z"/>
		</g>
		<g id="el0f3ujpts7tw_00000015354772457381683890000015660686117969080252_">
			<path id="el8alvm8ooq1v_00000044162878824040980530000005400978613391381687_" class="st6" d="M377.8,167.4
				c-0.1,0.5-0.6,0.7-1.1,0.6c-0.5-0.1-0.7-0.6-0.6-1.1s0.6-0.7,1.1-0.6C377.7,166.4,377.9,166.9,377.8,167.4L377.8,167.4z"/>
		</g>
		<g id="elffuc80unbsp_00000078727683937764241310000009707971040902893479_">
			<path id="elmnt6sn6zei_00000178203276072739357160000018163950061480471478_" class="st6" d="M379.6,161.6
				c-0.1,0.5-0.6,0.7-1.1,0.6c0,0,0,0,0,0c-0.5-0.2-0.7-0.6-0.6-1.1c0.2-0.5,0.7-0.7,1.2-0.5C379.5,160.8,379.7,161.2,379.6,161.6
				L379.6,161.6z"/>
		</g>
		<g id="elfv8fm43k6bu_00000107582158181501405540000014305756922836093848_">
			<path id="elgy9q0ylvmpr_00000108291630527765728190000004467229374096988071_" class="st6" d="M381.6,165.4
				c-0.2,0.5-0.7,0.7-1.1,0.5c-0.4-0.2-0.7-0.6-0.6-1.1c0.1-0.5,0.6-0.7,1.1-0.6C381.5,164.4,381.7,164.8,381.6,165.4
				C381.6,165.3,381.6,165.4,381.6,165.4z"/>
		</g>
		<g id="eloarz0wuwhcq_00000039116149578278331770000008810045808252837767_">
			<path id="elh0w57i98p46_00000132071861161474680570000003549561219426979504_" class="st6" d="M380.7,168.3
				c-0.1,0.5-0.6,0.7-1.1,0.6c-0.5-0.1-0.7-0.6-0.6-1.1c0.1-0.5,0.6-0.7,1.1-0.6C380.6,167.3,380.8,167.8,380.7,168.3z"/>
		</g>
		<g id="el1lejvlcnb4r_00000034079312692572225890000005543719761260639410_">
			<path id="el1pg413d99dr_00000166651374644249933890000010251653425882107043_" class="st6" d="M382.5,162.5
				c-0.1,0.5-0.6,0.7-1.1,0.6c-0.5-0.1-0.7-0.6-0.6-1.1c0.1-0.5,0.6-0.7,1.1-0.6C382.4,161.5,382.6,162,382.5,162.5z"/>
		</g>
		<g id="elub2sy3gdsb8_00000104701579327968726780000013201785571541148033_">
			<path id="eleyjbma4frna_00000056410195714398645280000002760177089327332749_" class="st6" d="M372.9,162.7
				c-0.1,0.5-0.6,0.7-1.1,0.6c-0.5-0.1-0.7-0.6-0.6-1.1c0.1-0.5,0.6-0.7,1.1-0.6C372.8,161.7,373.1,162.2,372.9,162.7z"/>
		</g>
		<g id="eluo43bi7yyho_00000010278309072984307190000015914903309058601406_">
			<path id="el5dfzev5vwab_00000013193746112428756760000008971032446746847667_" class="st6" d="M372,165.6
				c-0.1,0.5-0.6,0.7-1.1,0.6c-0.5-0.1-0.7-0.6-0.6-1.1c0.1-0.5,0.6-0.7,1.1-0.6C371.9,164.6,372.2,165.1,372,165.6
				C372,165.6,372,165.6,372,165.6z"/>
		</g>
		<g id="eloq6hxfv53vj_00000122707372402074476470000005765315017789166762_">
			<path id="elag56mi6a0nu_00000111163832849835775820000004398512241143058061_" class="st6" d="M373.8,159.8
				c-0.1,0.5-0.6,0.7-1.1,0.6c0,0,0,0,0,0c-0.5-0.1-0.7-0.6-0.6-1.1c0.1-0.5,0.6-0.7,1.1-0.6C373.7,158.8,374,159.3,373.8,159.8z"/>
		</g>
		<g id="elurnt1bjtnl_00000008838451421219609250000012810042991857420478_">
			<path id="elv4fipcuv5k_00000013173804412772467730000007093794683776799392_" class="st6" d="M370.1,161.8
				c-0.1,0.5-0.6,0.7-1.1,0.6c0,0,0,0,0,0c-0.5-0.2-0.7-0.6-0.6-1.1c0.2-0.5,0.7-0.7,1.2-0.5C369.9,160.9,370.1,161.3,370.1,161.8
				L370.1,161.8z"/>
		</g>
		<g id="elherbyoihoq8_00000060028596233331803980000015993121732833426100_">
			<path id="el6vj55lfes4f_00000003070016599852302300000003530008301592115073_" class="st6" d="M369.1,164.6
				c-0.1,0.5-0.6,0.7-1.1,0.6c0,0,0,0,0,0c-0.5-0.1-0.7-0.6-0.6-1.1c0.1-0.5,0.6-0.7,1.1-0.6C369,163.7,369.3,164.2,369.1,164.6z"/>
		</g>
		<g id="elo8xztg3brkp_00000129175959244345065830000004565715026974107547_">
			<path id="elbros2d5kalv_00000061432350244767504330000002963144287730680253_" class="st6" d="M371,158.9
				c-0.1,0.5-0.6,0.7-1.1,0.6c-0.5-0.1-0.7-0.6-0.6-1.1c0.1-0.5,0.6-0.7,1.1-0.6C370.9,157.9,371.1,158.4,371,158.9z"/>
		</g>
	</g>
	<g id="freepik--Character--inject-69_00000152975833158241782300000015231956607379941761_">
		<path id="el2fho0wpmwc7_00000008869050878180202850000015633606122111109295_" class="st21" d="M291.1,129.8
			c13.2-0.7,21,12.2,13.3,20.5s-2.2,12.3,0.9,13.8c-3.4,9.7-30.4,11.1-36.2,2.9c-4.8-6.9,14-15.8,9.5-23.3S280.8,129.6,291.1,129.8z
			"/>
		<path id="elxkb1s18yygd_00000135662738515987858510000010652276085537441170_" class="st22" d="M211.1,188.2l1.9,2.1
			c0.7,0.8,1.7,1.2,2.8,1.1l4.9-0.5c2-0.2,3.7-1.4,4.7-3.1l0.6-1.1c-2.8-3.7-8.6-5.6-8.6-5.6l-1.6-0.7c-1.3-0.7-3-0.1-3.6,1.2l0,0
			l-1.5,3.1C210,186,210.3,187.3,211.1,188.2z"/>
		<path id="el9qmxa4x9e3b_00000181072070531506640140000018242107251211845816_" class="st2" d="M273.6,187.7
			c-1.1,1.2-2,2.2-3.1,3.3s-2,2.1-3.1,3.2c-2.1,2.1-4.2,4.2-6.4,6.2c-4.5,4.2-9.3,8-14.6,11.2h-0.1c-0.1,0.1-0.3,0.2-0.4,0.2
			c-1.5,0.7-3.1,1-4.7,1c-1.2-0.1-2.4-0.3-3.6-0.7c-1.7-0.6-3.2-1.4-4.7-2.4c-2.3-1.6-4.4-3.5-6.4-5.5c-1.9-1.9-3.6-3.8-5.2-5.8
			s-3.2-3.9-4.8-6l9.9-7.1c1.2,1.7,2.7,3.6,4.1,5.4s3,3.4,4.5,5c1.4,1.4,3,2.7,4.6,3.9c0.5,0.4,1.1,0.7,1.7,0.9c0.1,0.1,0.2,0,0,0
			c-0.4,0-0.8,0.1-1.2,0.3l-0.4,0.2c2.1-1.4,4.2-2.9,6.1-4.6c2-1.7,4-3.6,5.9-5.5s3.8-3.9,5.6-5.9c0.9-1,1.8-2.1,2.7-3.1
			s1.8-2.1,2.5-3.1L273.6,187.7z"/>
		<g id="elr166lhr57bb_00000049219959689207849390000010381037012309921923_">
			<path id="el16c8rquk0zih_00000182512213432021412620000006352079190856366250_" class="st15" d="M273.6,187.7
				c-1.1,1.2-2,2.2-3.1,3.3s-2,2.1-3.1,3.2c-2.1,2.1-4.2,4.2-6.4,6.2c-4.5,4.2-9.3,8-14.6,11.2h-0.1c-0.1,0.1-0.3,0.2-0.4,0.2
				c-1.5,0.7-3.1,1-4.7,1c-1.2-0.1-2.4-0.3-3.6-0.7c-1.7-0.6-3.2-1.4-4.7-2.4c-2.3-1.6-4.4-3.5-6.4-5.5c-1.9-1.9-3.6-3.8-5.2-5.8
				s-3.2-3.9-4.8-6l9.9-7.1c1.2,1.7,2.7,3.6,4.1,5.4s3,3.4,4.5,5c1.4,1.4,3,2.7,4.6,3.9c0.5,0.4,1.1,0.7,1.7,0.9c0.1,0.1,0.2,0,0,0
				c-0.4,0-0.8,0.1-1.2,0.3l-0.4,0.2c2.1-1.4,4.2-2.9,6.1-4.6c2-1.7,4-3.6,5.9-5.5s3.8-3.9,5.6-5.9c0.9-1,1.8-2.1,2.7-3.1
				s1.8-2.1,2.5-3.1L273.6,187.7z"/>
		</g>
		<path id="el2fdlu6w9es4_00000036245140091631372040000010966071741905491115_" class="st23" d="M297.3,419.8c7,0,6.5-0.1,10.4-0.2
			c3.4-0.1,4.1,0.3,6.8,0.2c2.2,0,2.2-2.2,1.6-4.7c-0.3-1.2-0.8-2.8-1.2-4.8h-10.6c-1.8,3-4.9,5-8.4,5.3
			C292.2,416.2,294.6,419.8,297.3,419.8z"/>
		<path id="el5bz205xoqfj_00000036941308169584213390000004622634601577490323_" class="st23" d="M244.9,419.8c6.8,0,9.1-0.5,13-0.6
			c3.3-0.1,3.8,0.6,7.1,0.6c2.2,0,2.6-2.5,1.9-4.4c-0.8-1.6-1.4-3.3-1.9-5.1h-9.4c-1.8,3-6.6,5.2-11.8,5.6
			C240.1,416.2,242.2,419.8,244.9,419.8z"/>
		<path id="elwldtxmpx36h_00000020368971796809661190000002303255017379613835_" class="st21" d="M261.6,233.6
			c0,0-3.7,49.2-2.2,80.4c-1.6,29.3-3.8,96.4-3.8,96.4c0.2,1.5,8.1,0.9,9.4,0c0,0,17-48.9,12.7-96.4c18.7-49.6,16.6-80.4,16.6-80.4
			H261.6z"/>
		<path id="elj0k6p1rx9n9_00000109729534458405233320000015848534151585341112_" class="st21" d="M271.4,233.6
			c0,0,14.5,55.5,20.3,82.7c6.1,28.6,14.2,75.1,12.6,94.1c1.6,1,7.3,1,10.6,0c0,0,12.5-65.3-3.3-92.8c5.5-67.8-12.5-84-12.5-84
			H271.4z"/>
		<path id="el5pi3n91kajt_00000005256469388396458700000016983735676777914041_" class="st21" d="M303.6,406.4
			c-0.1,1.3-0.2,2.6-0.5,3.9c-0.1,0.4,0.1,0.8,0.5,1h0.1c3.9,0.6,9.5-0.3,11.2-0.6c0.3-0.1,0.6-0.3,0.7-0.7l0.7-3.6
			c0.1-0.4-0.2-0.8-0.6-0.9c-0.1,0-0.1,0-0.2,0l-11.2,0.2C304,405.7,303.7,406,303.6,406.4z"/>
		<g id="el6kn9m31otkp_00000107565344489570047520000001650908578034807475_">
			<path id="el2vnjgxex6oy_00000005982295692931177090000007026235605298226865_" class="st24" d="M303.6,406.4
				c-0.1,1.3-0.2,2.6-0.5,3.9c-0.1,0.4,0.1,0.8,0.5,1h0.1c3.9,0.6,9.5-0.3,11.2-0.6c0.3-0.1,0.6-0.3,0.7-0.7l0.7-3.6
				c0.1-0.4-0.2-0.8-0.6-0.9c-0.1,0-0.1,0-0.2,0l-11.2,0.2C304,405.7,303.7,406,303.6,406.4z"/>
		</g>
		<path id="el8qvpbap7pdv_00000029735610419960087080000016906347804021206705_" class="st21" d="M254.7,406.3
			c-0.1,1-0.2,2.8-0.4,4.2c-0.1,0.4,0.3,0.8,0.7,0.9c3.5,0.3,7,0.2,10.4-0.1c0.3,0,0.6-0.3,0.7-0.6l0.9-3.6c0.1-0.4-0.2-0.9-0.6-1
			h-0.1l-10.7-0.4C255.2,405.5,254.8,405.8,254.7,406.3C254.7,406.2,254.7,406.3,254.7,406.3z"/>
		<g id="el9hddghhq82_00000039111353743061744050000001215315476848739976_">
			<path id="eltufhhbwqqr_00000108272098468863833090000016321081099151359619_" class="st24" d="M254.7,406.3
				c-0.1,1-0.2,2.8-0.4,4.2c-0.1,0.4,0.3,0.8,0.7,0.9c3.5,0.3,7,0.2,10.4-0.1c0.3,0,0.6-0.3,0.7-0.6l0.9-3.6c0.1-0.4-0.2-0.9-0.6-1
				h-0.1l-10.7-0.4C255.2,405.5,254.8,405.8,254.7,406.3C254.7,406.2,254.7,406.3,254.7,406.3z"/>
		</g>
		<path id="elvdcsqk6uc8_00000160177797676416105100000010905124388906520461_" class="st4" d="M259.5,189.4
			c-0.2,5.7-0.1,11.5,0.2,17.2c0.3,7.5,0.8,14.8,1.9,27h37.6c-0.8-10.6,0.5-22.6,7.2-46.4c1.5-4.6-1.1-9.5-5.7-11
			c-0.6-0.2-1.2-0.3-1.8-0.4c-1.5-0.1-3.1-0.3-4.7-0.4c-5.7-0.4-11.3-0.4-17,0c-1.9,0.2-3.8,0.4-5.6,0.6
			C264.9,177,259.8,182.6,259.5,189.4z"/>
		<path id="el5m4e6zkptq_00000114061736802921394250000006269987969565745844_" class="st22" d="M293,156.2
			c-1.5,5.5-3.3,15.5,0.3,19.2c0,0-5.2-0.8-16.2,6c-3.2-4.6-0.8-6-0.8-6c6.2-1.5,6.4-6,5.7-10.3L293,156.2z"/>
		<path id="elwcukbevr3s_00000111897515098279344020000001634376758043481765_" class="st18" d="M279.4,180.1c2.1,1.4,3,6.7,3,6.7
			s13.7-5.2,13.2-11.2c-1.1-0.6-2.2-1.3-3.2-2C292.4,173.6,281.5,178,279.4,180.1z"/>
		<path id="el6jr5zv6b3ax_00000181077473571031786140000000982203865455635107_" class="st18" d="M275.9,179.5c-1,1.9-1.8,3.9-2.3,6
			c-5.5-4.6,0.9-10.1,0.9-10.1c1-0.6,2.2-0.7,3.3-0.5C276.2,175.8,275.4,177.7,275.9,179.5z"/>
		<g id="elmlge4r9v52s_00000122708889151440700890000015913329995520441771_">
			<path id="elibwuv4qws1s_00000044149241067625335510000008166439780159941504_" class="st25" d="M288.5,159.9l-6.6,5.3
				c0.2,1,0.3,2,0.3,3c2.4-0.3,5.8-2.9,6.2-5.3C288.6,161.9,288.6,160.9,288.5,159.9z"/>
		</g>
		<path id="eljcucln6nkno_00000023963586069998354470000001195878290478990779_" class="st22" d="M297.7,145.2
			c-1.7,8.9-2.2,12.6-7.2,16.9c-7.6,6.4-18,3-19-6c-0.9-8.1,2-21.2,11.1-24.2c6-2.1,12.6,1,14.7,7C298,141,298.1,143.2,297.7,145.2z
			"/>
		<path id="elwdn4m4jifwa_00000115492549838403959730000018001178279432106881_" class="st21" d="M291.3,133.7
			c-2.7,7.2,3.1,11.4,4.4,17.6C302.3,146.9,302.8,128.4,291.3,133.7z"/>
		<path id="eljbenvkf141_00000098907702297316161520000010800857529624861579_" class="st4" d="M292.6,145.7c-0.2,0-0.5-0.1-0.7-0.2
			c-0.4-0.2-0.6-0.5-0.7-0.9s-0.1-0.8,0.1-1.2s0.5-0.6,0.9-0.8l4.7-1.5c0.8-0.3,1.7,0.2,2,1s-0.2,1.7-1,2l0,0l-4.8,1.5
			C293,145.7,292.8,145.7,292.6,145.7z M297.3,141.6c-0.1,0-0.2,0-0.3,0.1l-4.7,1.5c-0.6,0.2-0.9,0.8-0.7,1.3
			c0.1,0.3,0.3,0.5,0.5,0.6c0.3,0.1,0.5,0.2,0.8,0.1l4.7-1.5c0.6-0.2,0.9-0.8,0.7-1.3l0,0c-0.1-0.3-0.3-0.5-0.5-0.6
			C297.6,141.6,297.5,141.6,297.3,141.6L297.3,141.6z"/>
		<path id="elttdxqvnw5g_00000124131902324070019490000002153307991359140257_" class="st21" d="M283.7,146.7
			c-0.1,0.8-0.6,1.3-1.1,1.3s-0.8-0.7-0.7-1.4s0.6-1.3,1.1-1.3S283.8,146,283.7,146.7z"/>
		<path id="el9o6ws5l1uqh_00000029011558476098912920000004168575301570562186_" class="st21" d="M274.6,146.2
			c-0.1,0.8-0.6,1.3-1.1,1.3s-0.8-0.7-0.7-1.4s0.6-1.3,1.1-1.3S274.7,145.4,274.6,146.2z"/>
		<path id="elqo6ukmeqbu_00000134937364143592036560000004360673122662082955_" class="st21" d="M274.2,144.8l-1.7-0.6
			C272.5,144.2,273.2,145.7,274.2,144.8z"/>
		<path id="eltzw455uofo_00000100378744878978291230000004230093815372260996_" class="st26" d="M277,147.6c-0.9,1.7-2,3.2-3.3,4.6
			c0.7,0.6,1.6,0.9,2.5,0.7L277,147.6z"/>
		<path id="el0qnin8l68of_00000103953884169528566930000009654146779416226960_" class="st21" d="M280,156c-0.4,0-0.8,0-1.2,0
			c-0.1,0-0.2-0.1-0.2-0.2l0,0c0-0.1,0.1-0.2,0.2-0.2c1.9,0.1,3.8-0.6,5.1-2c0.1-0.1,0.2-0.1,0.3,0l0,0c0.1,0.1,0.1,0.2,0,0.3
			C283.1,155,281.6,155.8,280,156z"/>
		<path id="elsopyza6nd2_00000014603775687332706320000010352097792970532246_" class="st22" d="M298.7,152.8
			c-1,1.5-2.5,2.4-4.2,2.7c-2.1,0.2-2.7-2.2-1.6-4.5c0.9-2,3.1-4.6,5.1-3.8S300,150.9,298.7,152.8z"/>
		<path id="elw1374z50y2i_00000124873695636765581080000007529502519216711072_" class="st4" d="M297.6,155.8c0,1.2-1,2.2-2.2,2.2
			s-2.2-1-2.2-2.2s1-2.2,2.2-2.2S297.6,154.6,297.6,155.8L297.6,155.8z"/>
		<path id="el8k71iivwbje_00000070829701947023599690000004429753026556123043_" class="st21" d="M286.5,142.4
			c-0.1,0-0.2-0.1-0.3-0.1c-0.7-0.8-1.8-1.2-2.9-1.1c-0.2,0-0.4-0.1-0.5-0.3l0,0c0-0.2,0.1-0.5,0.4-0.5c1.4-0.2,2.7,0.3,3.6,1.4
			c0.2,0.2,0.1,0.5,0,0.6C286.7,142.3,286.6,142.4,286.5,142.4z"/>
		<path id="elrwr3ami091_00000155832347932946299710000013254402151325447060_" class="st21" d="M272.1,141.8c-0.1,0-0.2,0-0.3-0.1
			c-0.2-0.2-0.2-0.4-0.1-0.6l0,0c0.8-1.2,2.2-1.9,3.6-1.9c0.2,0,0.4,0.2,0.4,0.4l0,0c0,0.2-0.2,0.4-0.5,0.4
			c-1.1,0.1-2.2,0.6-2.9,1.6C272.3,141.7,272.2,141.7,272.1,141.8z"/>
		<path id="elxlt6twnvc3_00000074435610540603446740000000358809220240787630_" class="st21" d="M283.2,145.4l-1.7-0.6
			C281.5,144.7,282.2,146.2,283.2,145.4z"/>
		<path id="elxr8gb8vavvp_00000034791266918358298670000018047990568664720816_" class="st2" d="M296,173.6
			c-4.2,2.9-9.8,33.6-11.4,79.4c-1,27.7,0,55.3,2.8,82.9c0,0,18.3-20.1,29.7-26c0.2-42.7-8.9-71.9-7.8-82.6s7-40.6,2.4-46.2
			S296,173.6,296,173.6z"/>
		<g id="elcqn8gv5uxje_00000170973162979869699560000017485665290312863902_">
			<path id="elkykmbzr9bwk_00000009559241638721396780000017601151816328697519_" class="st27" d="M296,173.6
				c-4.2,2.9-9.8,33.6-11.4,79.4c-1,27.7,0,55.3,2.8,82.9c0,0,18.3-20.1,29.7-26c0.2-42.7-8.9-71.9-7.8-82.6s7-40.6,2.4-46.2
				S296,173.6,296,173.6z"/>
		</g>
		<path id="elatjkdxa5m3s_00000001629310376514801780000016915479905677156009_" class="st2" d="M274.9,175.1
			c-4.9,7.2-15.6,97-5.5,160.7c-8-4.4-13.8-16.7-13.8-16.7s-0.8-55.4,3-85.5C257.8,198.2,253.6,174.3,274.9,175.1z"/>
		<g id="elsszz6k9v93k_00000178898899866874977030000012514344427985234867_">
			<path id="elr6hn1xvis7_00000136371921672832009090000012712520976368803728_" class="st27" d="M274.9,175.1
				c-4.9,7.2-15.6,97-5.5,160.7c-8-4.4-13.8-16.7-13.8-16.7s-0.8-55.4,3-85.5C257.8,198.2,253.6,174.3,274.9,175.1z"/>
		</g>
		<path id="elku5cbu7y5wb_00000154412114682592731700000018126799110699846320_" class="st28" d="M289.3,234
			c-2.5-4.8-4.8-9.7-6.8-14.8c-3.1-7.8-5.5-17-5.5-17s-23.3-0.9-27.7,1.8c2.5,9.9,13.6,33.8,13.6,33.8S280.4,237.4,289.3,234z"/>
		<path id="el8n1zcv46upr_00000057126039471227454150000012718494027722736827_" class="st18" d="M265.3,239.3l21.2-0.6
			c2.1-0.1,3.2-1.6,2.4-3.5l-13.4-30.8c-1-2-3.1-3.2-5.3-3.2l-21.2,0.6c-2.1,0.1-3.2,1.6-2.4,3.5l13.4,30.8
			C261,238,263.1,239.3,265.3,239.3z"/>
		<path id="el30hyjjmd0rj_00000073002031986587729860000006048471193387589763_" class="st4" d="M264.2,240.5
			c-2.3-0.1-4.4-1.4-5.4-3.4l-13.4-30.8c-0.4-0.8-0.4-1.8,0.1-2.6c0.6-0.8,1.6-1.3,2.6-1.3l21.2-0.6c2.3,0,4.5,1.3,5.6,3.4
			l13.4,30.8c0.4,0.8,0.4,1.8-0.1,2.6c-0.6,0.8-1.6,1.3-2.6,1.2l-21.2,0.6h-0.2V240.5z M264.3,240L264.3,240l21.2-0.6
			c0.8,0,1.6-0.3,2.1-1c0.4-0.7,0.4-1.4,0-2.1l-13.4-30.8c-1-1.9-2.9-3.1-5.1-3.1l-21.2,0.6c-0.8,0-1.6,0.3-2.2,1
			c-0.4,0.7-0.4,1.4,0,2.1l13.3,30.8C260.2,238.9,262.2,240,264.3,240L264.3,240z"/>
		<path id="el4zslmb6gopf_00000101104913807555991290000016364804900874567079_" class="st22" d="M276.8,216.2l2.5-1.2
			c1-0.5,2.1-0.4,3,0.1l4.3,2.4c1.7,0.9,2.9,2.7,3.1,4.6l0.1,1.2c-4,2.3-10.1,1.9-10.1,1.9l-1.8,0.1c-1.5,0.1-2.8-1-2.9-2.5l0,0
			l-0.2-3.4C274.9,217.9,275.6,216.8,276.8,216.2z"/>
		<g id="ele4cm44lq63k_00000042723776501211708530000002818665916223349164_">
			<path id="elwl7duitvyb_00000162349775350756355590000001736245376101408906_" class="st19" d="M304,192.7
				c-0.8,13.7-0.9,26.3,2.8,28.4C311.1,216.9,310.7,211,304,192.7z"/>
		</g>
		<path id="el4muvqcefoln_00000051358205764385253500000001457186721626503054_" class="st2" d="M313.2,183c0.5,1.5,1,2.9,1.4,4.4
			s0.9,2.9,1.3,4.3c0.8,2.9,1.6,5.8,2.2,8.7c1.5,6.1,2.3,12.3,2.4,18.6c0,0.1,0,0.3,0,0.4v0.1c-0.2,1.9-0.9,3.7-2.2,5.1
			c-0.9,1.1-2,1.9-3.3,2.6c-1.7,0.8-3.4,1.4-5.2,1.7c-2.8,0.4-5.6,0.6-8.5,0.5c-2.7,0-5.2-0.2-7.8-0.4s-5-0.5-7.7-0.9l2-12
			c2.2,0.4,4.6,0.7,6.8,0.9s4.6,0.4,6.8,0.4c2.1,0,4.1-0.1,6.1-0.4c0.6-0.1,1.2-0.3,1.7-0.5c0.1,0-0.1,0-0.4,0.4
			c-0.4,0.5-0.7,1.1-0.8,1.8v0.5c-0.1-2.5-0.4-5.1-0.8-7.6c-0.5-2.6-1.1-5.2-1.8-7.9s-1.5-5.2-2.4-7.9c-0.5-1.3-0.9-2.6-1.4-3.9
			s-1-2.6-1.5-3.8L313.2,183z"/>
		<g id="elgez02ttzs2m_00000120545738854021988050000005195832520576429208_">
			<path id="eln5aaxua0q4_00000026161851101290857430000018319933004920681602_" class="st27" d="M313.2,183c0.5,1.5,1,2.9,1.4,4.4
				s0.9,2.9,1.3,4.3c0.8,2.9,1.6,5.8,2.2,8.7c1.5,6.1,2.3,12.3,2.4,18.6c0,0.1,0,0.3,0,0.4v0.1c-0.2,1.9-0.9,3.7-2.2,5.1
				c-0.9,1.1-2,1.9-3.3,2.6c-1.7,0.8-3.4,1.4-5.2,1.7c-2.8,0.4-5.6,0.6-8.5,0.5c-2.7,0-5.2-0.2-7.8-0.4s-5-0.5-7.7-0.9l2-12
				c2.2,0.4,4.6,0.7,6.8,0.9s4.6,0.4,6.8,0.4c2.1,0,4.1-0.1,6.1-0.4c0.6-0.1,1.2-0.3,1.7-0.5c0.1,0-0.1,0-0.4,0.4
				c-0.4,0.5-0.7,1.1-0.8,1.8v0.5c-0.1-2.5-0.4-5.1-0.8-7.6c-0.5-2.6-1.1-5.2-1.8-7.9s-1.5-5.2-2.4-7.9c-0.5-1.3-0.9-2.6-1.4-3.9
				s-1-2.6-1.5-3.8L313.2,183z"/>
		</g>
		<path id="el2s66oh3ebf2_00000109726652054595760450000014984641892892469171_" class="st21" d="M294,136.3
			c-4.5,4.5-24.7-2.8-23.9,4.7c-3.1-7,1.8-14.5,14.3-14.5C299.6,126.5,296.7,133.6,294,136.3z"/>
		<path id="el0y803lnwva3q" class="st2" d="M239.9,159.4l-1-0.3c0.7-2.1,1-4.2,1.1-6.4h1C241,154.9,240.6,157.2,239.9,159.4z"/>
		<path id="el8kmlyob2itq" class="st2" d="M239.6,146.6c-1.3-6.4-5.1-11.9-10.6-15.4l0.6-0.8c5.7,3.7,9.6,9.4,11,16.1L239.6,146.6z"
			/>
		<path id="el27xnvvpqr6e" class="st2" d="M215.6,177.1c-14.1,0-25.4-11.4-25.4-25.5c0-4.9,1.4-9.7,4.1-13.9l0.8,0.5
			c-7.4,11.3-4.1,26.5,7.2,33.8c4,2.6,8.6,3.9,13.3,3.9L215.6,177.1z"/>
		<g id="eljfhz0t5dreb">
			<circle id="elwao8n508qvq" class="st29" cx="215.6" cy="151.7" r="22.1"/>
		</g>
		<g id="elnb5ffom848e">
			<path id="el465p5v8z5uf" class="st6" d="M212.6,165.1l-0.3-0.2c2.6-6.9,8.8-11.5,12.5-17.7c1.2-2,0.4-4.7-1.3-6.3l0.2-0.4
				c0.2-0.4,0-0.8-0.4-1l0,0c-0.4-0.2-0.8,0-1,0.4l-0.1,0.2c-1.9-0.8-3.9,0.2-5.1,2.1c-3.7,6.2-9.9,10.8-12.5,17.7l0,0
				c-0.3-0.2-0.8-0.1-1,0.2s-0.1,0.8,0.2,1l8,5.2c0.3,0.3,0.8,0.2,1-0.1S213,165.4,212.6,165.1C212.8,165.2,212.7,165.2,212.6,165.1
				L212.6,165.1z"/>
		</g>
		<path id="ely4rmaop0lq_00000097481917997519266140000012841764516976432001_" class="st4" d="M210,154.6c-0.1,0-0.2,0-0.3-0.1
			c-0.2-0.2-0.3-0.5-0.1-0.7l0,0c1-1.2,2-2.5,3-3.7c0.2-0.2,0.5-0.2,0.7-0.1c0.2,0.2,0.2,0.5,0.1,0.7l0,0c-1,1.2-2.1,2.4-3,3.6
			C210.3,154.5,210.2,154.6,210,154.6z"/>
		<path id="elpo5f8eyqzoj_00000163779900255014939340000008744254849635940026_" class="st4" d="M206.3,161c-0.1,0-0.1,0-0.2,0
			c-0.3-0.1-0.4-0.4-0.3-0.6l0,0c0.5-1.4,1.2-2.8,2.1-4.1c0.1-0.2,0.5-0.3,0.7-0.2s0.3,0.5,0.2,0.7c-0.8,1.2-1.5,2.5-2,3.9
			C206.6,160.9,206.5,161,206.3,161z"/>
		<path id="elfxw0b81gvr_00000168116238486253463720000001351705080093958309_" class="st4" d="M218.1,153.6c-0.1,0-0.2,0-0.3-0.1
			c-0.2-0.2-0.2-0.5-0.1-0.7l0,0c0.7-0.8,1.4-1.6,2-2.4c0.2-0.2,0.5-0.2,0.7-0.1l0,0c0.2,0.2,0.2,0.5,0.1,0.7
			c-0.6,0.8-1.3,1.6-2,2.4C218.4,153.5,218.2,153.6,218.1,153.6z"/>
		<path id="elezqrw6tkzqe_00000058587891170910041250000000109316588470596756_" class="st4" d="M221.9,148.9c-0.1,0-0.2,0-0.3-0.1
			c-0.2-0.2-0.3-0.5-0.1-0.7c0.5-0.7,1-1.4,1.4-2.1c0.5-1.2,0.1-2.6-0.9-3.4c-0.2-0.2-0.3-0.5-0.1-0.7s0.5-0.3,0.7-0.1l0.1,0.1
			c1.4,1.1,1.8,3,1.1,4.6c-0.4,0.7-0.9,1.4-1.4,2.2C222.2,148.9,222.1,148.9,221.9,148.9z"/>
	</g>
</g>
</svg>
